<svg width="161" height="103" viewBox="0 0 161 103" fill="none" xmlns="http://www.w3.org/2000/svg">
<path d="M132.81 89.57C133.217 90.01 133.527 90.36 133.74 90.62C133.953 90.88 134.123 91.1467 134.25 91.42C134.383 91.6867 134.45 91.96 134.45 92.24C134.45 92.58 134.36 92.89 134.18 93.17C134 93.45 133.757 93.67 133.45 93.83C133.15 93.99 132.827 94.07 132.48 94.07C132.127 94.07 131.797 93.99 131.49 93.83C131.19 93.67 130.95 93.45 130.77 93.17C130.59 92.89 130.5 92.58 130.5 92.24C130.5 91.94 130.56 91.6533 130.68 91.38C130.807 91.1067 130.96 90.86 131.14 90.64C131.32 90.42 131.57 90.14 131.89 89.8L131.64 89.52L132.22 88.92L132.81 89.57ZM131.28 92.24C131.28 92.5133 131.387 92.7367 131.6 92.91C131.82 93.0833 132.113 93.17 132.48 93.17C132.84 93.17 133.127 93.0833 133.34 92.91C133.56 92.7367 133.67 92.5133 133.67 92.24C133.67 92.02 133.583 91.79 133.41 91.55C133.237 91.3033 132.923 90.93 132.47 90.43C132.037 90.8833 131.73 91.2333 131.55 91.48C131.37 91.7267 131.28 91.98 131.28 92.24ZM138.171 89.07C138.245 89.2433 138.475 89.7467 138.861 90.58L139.221 91.37C139.221 91.37 139.221 91.3733 139.221 91.38C139.228 91.38 139.231 91.38 139.231 91.38C139.425 91.8133 139.591 92.15 139.731 92.39C139.878 92.63 140.031 92.81 140.191 92.93C140.351 93.0433 140.538 93.1 140.751 93.1H140.911L140.961 93.58L140.911 94H140.751C140.458 94 140.195 93.9333 139.961 93.8C139.735 93.66 139.518 93.46 139.311 93.2L139.281 93.25C138.935 93.75 138.388 94 137.641 94H137.131C136.771 94 136.451 93.9467 136.171 93.84C135.891 93.7267 135.651 93.6 135.451 93.46L135.861 92.7C136.061 92.82 136.251 92.9167 136.431 92.99C136.611 93.0633 136.845 93.1 137.131 93.1H137.641C137.881 93.1 138.085 93.0733 138.251 93.02C138.418 92.96 138.548 92.8633 138.641 92.73C138.708 92.6433 138.741 92.5433 138.741 92.43C138.741 92.33 138.705 92.19 138.631 92.01L138.511 91.74L138.201 91.07C137.908 90.4433 137.658 89.9033 137.451 89.45L138.171 89.07ZM140.809 93.1H141.419C141.739 93.1 141.966 93.03 142.099 92.89C142.239 92.75 142.309 92.5267 142.309 92.22V90.92H143.089V92.34C143.089 92.6067 143.153 92.8 143.279 92.92C143.413 93.0333 143.616 93.0933 143.889 93.1C144.209 93.0933 144.436 93.0233 144.569 92.89C144.709 92.75 144.779 92.5267 144.779 92.22V90.92H145.559V92.34C145.559 92.6067 145.623 92.8 145.749 92.92C145.883 93.0333 146.086 93.0933 146.359 93.1C146.639 93.0933 146.846 93.03 146.979 92.91C147.113 92.79 147.179 92.6233 147.179 92.41C147.179 92.2367 147.146 91.9667 147.079 91.6C147.019 91.2267 146.949 90.87 146.869 90.53L147.629 90.33C147.709 90.67 147.783 91.0433 147.849 91.45C147.923 91.8567 147.959 92.1733 147.959 92.4C147.959 92.6667 147.896 92.9233 147.769 93.17C147.649 93.4167 147.466 93.6167 147.219 93.77C146.979 93.9233 146.693 94 146.359 94C146.146 94 145.926 93.95 145.699 93.85C145.479 93.7433 145.289 93.58 145.129 93.36C144.803 93.7867 144.389 94 143.889 94C143.669 94 143.446 93.9433 143.219 93.83C142.993 93.71 142.806 93.5533 142.659 93.36C142.499 93.5733 142.313 93.7333 142.099 93.84C141.886 93.9467 141.659 94 141.419 94H140.809V93.1ZM143.779 88.6H144.779V89.6H143.779V88.6ZM144.729 87.31H145.679V88.26H144.729V87.31ZM145.619 88.6H146.619V89.6H145.619V88.6ZM150.807 94C150.447 94 150.127 93.9233 149.847 93.77C149.567 93.61 149.347 93.4 149.187 93.14C149.034 92.8733 148.957 92.58 148.957 92.26C148.957 92.1667 148.96 92.0967 148.967 92.05C149 91.7433 149.11 91.2033 149.297 90.43L150.027 90.62C150.014 90.68 149.96 90.91 149.867 91.31C149.78 91.7033 149.73 91.98 149.717 92.14C149.71 92.1733 149.707 92.2167 149.707 92.27C149.707 92.53 149.8 92.7333 149.987 92.88C150.18 93.0267 150.454 93.1 150.807 93.1H155.127C155.454 93.1 155.697 93.01 155.857 92.83C156.024 92.65 156.107 92.4333 156.107 92.18C156.107 91.8867 156.004 91.2767 155.797 90.35L156.557 90.15C156.777 91.1033 156.887 91.78 156.887 92.18C156.887 92.46 156.817 92.7433 156.677 93.03C156.537 93.31 156.334 93.5433 156.067 93.73C155.8 93.91 155.487 94 155.127 94H150.807ZM152.417 95.52H153.417V96.52H152.417V95.52ZM158.403 88.21H159.263V94H158.403V88.21ZM156.733 88.03C156.813 87.65 156.989 87.3433 157.263 87.11C157.536 86.8767 157.903 86.76 158.363 86.76H160.313V87.51H158.363C158.089 87.51 157.876 87.5767 157.723 87.71C157.569 87.8367 157.456 88.0133 157.383 88.24L156.733 88.03Z" fill="white"/>
<path d="M71.88 4.41C71.48 5.27 71.28 5.98667 71.28 6.56C71.28 7.16667 71.43 7.66 71.73 8.04C72.0367 8.42667 72.4833 8.62 73.07 8.62H74.15C74.6567 8.62 75.0667 8.54333 75.38 8.39C75.6933 8.23667 75.85 8.04333 75.85 7.81C75.85 7.61667 75.73 7.45333 75.49 7.32C75.11 7.10667 74.4667 7 73.56 7V6.1H76.88L76.93 6.55L76.88 7H76.33C76.43 7.08 76.5067 7.18667 76.56 7.32C76.6133 7.45333 76.64 7.6 76.64 7.76C76.64 8.04667 76.5567 8.32333 76.39 8.59C76.2233 8.85667 75.9533 9.07667 75.58 9.25C75.2133 9.43 74.7367 9.52 74.15 9.52H73.07C72.5433 9.52 72.0833 9.38333 71.69 9.11C71.3033 8.83667 71.0067 8.47333 70.8 8.02C70.6 7.57333 70.5 7.09333 70.5 6.58C70.5 5.86667 70.72 5.01667 71.16 4.03L71.88 4.41ZM79.6262 3.92V5.34C79.6262 5.61333 79.6928 5.81 79.8262 5.93C79.9595 6.04333 80.1695 6.1 80.4562 6.1H80.9662L81.0162 6.57L80.9662 7H80.4562C80.2428 7 80.0195 6.94667 79.7862 6.84C79.5528 6.73333 79.3562 6.57333 79.1962 6.36C79.0362 6.56667 78.8328 6.72667 78.5862 6.84C78.3395 6.94667 78.0895 7 77.8362 7H76.7762V6.1H77.8362C78.1762 6.1 78.4295 6.03 78.5962 5.89C78.7628 5.75 78.8462 5.52667 78.8462 5.22V3.92H79.6262ZM77.1562 1.79H78.1562V2.79H77.1562V1.79ZM78.1062 0.5H79.0562V1.45H78.1062V0.5ZM78.9962 1.79H79.9962V2.79H78.9962V1.79ZM83.528 3.92V5.34C83.528 5.61333 83.5946 5.81 83.728 5.93C83.8613 6.04333 84.0713 6.1 84.358 6.1H84.728L84.778 6.56L84.728 7H84.358C84.1446 7 83.9213 6.94667 83.688 6.84C83.4546 6.73333 83.258 6.57333 83.098 6.36C82.938 6.56667 82.7346 6.72667 82.488 6.84C82.2413 6.94667 81.9913 7 81.738 7H80.868V6.1H81.738C82.078 6.1 82.3313 6.03 82.498 5.89C82.6646 5.75 82.748 5.52667 82.748 5.22V3.92H83.528ZM81.658 1.79H82.658V2.79H81.658V1.79ZM84.5877 6.1H85.8277C86.2877 6.1 86.7144 6.04333 87.1077 5.93C87.5077 5.81 87.8644 5.66667 88.1777 5.5C88.4977 5.33333 88.9344 5.08333 89.4877 4.75C88.7077 4.42333 88.1111 4.18333 87.6977 4.03C87.2911 3.87667 87.0077 3.8 86.8477 3.8C86.6477 3.8 86.4911 3.84667 86.3777 3.94C86.2711 4.02667 86.1677 4.20667 86.0677 4.48L85.3077 4.24C85.6144 3.34667 86.1277 2.9 86.8477 2.9C87.0744 2.9 87.4211 2.98667 87.8877 3.16C88.3611 3.33333 89.0177 3.59667 89.8577 3.95L90.3477 4.15L90.5477 5.1L90.0177 5.43C89.4377 5.79667 88.9577 6.08333 88.5777 6.29C88.1977 6.49667 87.7777 6.66667 87.3177 6.8C86.8644 6.93333 86.3677 7 85.8277 7H84.5877V6.1ZM86.5077 0.95H87.5077V1.95H86.5077V0.95Z" fill="white"/>
<path d="M4.4 92.02C4.57333 92.74 5.08333 93.1 5.93 93.1H6.13L6.18 93.55L6.13 94H5.93C5.51667 94 5.11333 93.9033 4.72 93.71C4.32667 93.51 4.02333 93.1867 3.81 92.74C3.63667 93.02 3.42 93.2333 3.16 93.38C2.9 93.5267 2.62 93.6 2.32 93.6C2.00667 93.6 1.69667 93.5133 1.39 93.34C1.11 93.1867 0.89 92.9633 0.73 92.67C0.576667 92.37 0.5 92.0533 0.5 91.72C0.5 91.3733 0.58 91.0667 0.74 90.8C0.853333 90.6133 0.976667 90.4567 1.11 90.33C1.24333 90.2033 1.45 90.0667 1.73 89.92C2.01667 89.7667 2.42333 89.58 2.95 89.36L2.84 88.86L3.6 88.66L4.4 92.02ZM1.42 91.26C1.32 91.4267 1.27 91.5933 1.27 91.76C1.27 91.92 1.31333 92.0733 1.4 92.22C1.48667 92.3667 1.60667 92.4867 1.76 92.58C1.9 92.6733 2.07333 92.72 2.28 92.72C2.46 92.72 2.63333 92.68 2.8 92.6C2.97333 92.52 3.12 92.4067 3.24 92.26C3.30667 92.1733 3.35667 92.0833 3.39 91.99C3.42333 91.8967 3.44 91.7833 3.44 91.65C3.44 91.5567 3.43 91.44 3.41 91.3L3.15 90.19C2.61 90.3767 2.21 90.56 1.95 90.74C1.69667 90.9133 1.52 91.0867 1.42 91.26ZM10.724 88.01L7.57398 89.4L9.03398 91.25L9.06398 91.29C9.53065 91.89 9.86065 92.3033 10.054 92.53C10.254 92.75 10.4373 92.9 10.604 92.98C10.7773 93.06 11.004 93.1 11.284 93.1H11.474L11.524 93.55L11.474 94H11.284C10.8773 94 10.5407 93.9267 10.274 93.78C10.014 93.6333 9.72065 93.3667 9.39398 92.98C9.30065 93.2867 9.12732 93.5333 8.87398 93.72C8.62065 93.9067 8.29732 94 7.90398 94H6.03398V93.1H7.90398C8.19065 93.1 8.40732 93.05 8.55398 92.95C8.70732 92.85 8.78398 92.7167 8.78398 92.55C8.78398 92.3433 8.68065 92.1167 8.47398 91.87L6.72398 89.75L6.96398 88.7L10.404 87.19L10.724 88.01ZM11.3758 93.1H11.9858C12.3058 93.1 12.5324 93.03 12.6658 92.89C12.8058 92.75 12.8758 92.5267 12.8758 92.22V90.92H13.6558V92.34C13.6558 92.6067 13.7191 92.8 13.8458 92.92C13.9791 93.0333 14.1824 93.0933 14.4558 93.1C14.7758 93.0933 15.0024 93.0233 15.1358 92.89C15.2758 92.75 15.3458 92.5267 15.3458 92.22V90.92H16.1258V92.34C16.1258 92.6067 16.1891 92.8 16.3158 92.92C16.4491 93.0333 16.6524 93.0933 16.9258 93.1C17.2058 93.0933 17.4124 93.03 17.5458 92.91C17.6791 92.79 17.7458 92.6233 17.7458 92.41C17.7458 92.2367 17.7124 91.9667 17.6458 91.6C17.5858 91.2267 17.5158 90.87 17.4358 90.53L18.1958 90.33C18.2758 90.67 18.3491 91.0433 18.4158 91.45C18.4891 91.8567 18.5258 92.1733 18.5258 92.4C18.5258 92.6667 18.4624 92.9233 18.3358 93.17C18.2158 93.4167 18.0324 93.6167 17.7858 93.77C17.5458 93.9233 17.2591 94 16.9258 94C16.7124 94 16.4924 93.95 16.2658 93.85C16.0458 93.7433 15.8558 93.58 15.6958 93.36C15.3691 93.7867 14.9558 94 14.4558 94C14.2358 94 14.0124 93.9433 13.7858 93.83C13.5591 93.71 13.3724 93.5533 13.2258 93.36C13.0658 93.5733 12.8791 93.7333 12.6658 93.84C12.4524 93.9467 12.2258 94 11.9858 94H11.3758V93.1ZM26.0634 94C25.7034 94 25.3934 93.9467 25.1334 93.84C24.8801 93.7267 24.6734 93.5933 24.5134 93.44C24.3534 93.28 24.1901 93.08 24.0234 92.84L23.9334 92.72C23.5468 92.9467 23.2601 93.1767 23.0734 93.41C22.8934 93.6433 22.8034 93.8967 22.8034 94.17C22.8034 94.35 22.8368 94.53 22.9034 94.71C23.0234 95.0567 23.2301 95.2933 23.5234 95.42C23.8234 95.5533 24.2201 95.62 24.7134 95.62H26.5534V96.52H24.7134C24.1134 96.52 23.5868 96.41 23.1334 96.19C22.6801 95.97 22.3568 95.5767 22.1634 95.01C22.0768 94.7567 22.0334 94.5 22.0334 94.24C22.0334 93.8067 22.1568 93.3967 22.4034 93.01C22.6501 92.6233 23.0034 92.2833 23.4634 91.99L23.1634 91.54L22.3634 90.32L22.8534 89.42H23.7134H25.5034C25.8768 89.42 26.1701 89.5433 26.3834 89.79C26.6034 90.03 26.7134 90.3133 26.7134 90.64C26.7134 90.84 26.6701 91.03 26.5834 91.21C26.4968 91.3833 26.3701 91.5267 26.2034 91.64L24.8134 92.59C24.9801 92.77 25.1801 92.9 25.4134 92.98C25.6534 93.06 25.9768 93.1 26.3834 93.1H27.2534L27.3134 93.55L27.2534 94H26.0634ZM23.8634 91.17L24.3234 91.9L25.7334 90.92C25.8668 90.8267 25.9334 90.7133 25.9334 90.58C25.9334 90.4933 25.8934 90.42 25.8134 90.36C25.7401 90.2933 25.6368 90.26 25.5034 90.26H24.0834H23.3034L23.8634 91.17ZM27.157 93.1H28.257C28.5437 93.1 28.757 93.04 28.897 92.92C29.037 92.7933 29.107 92.6233 29.107 92.41C29.107 92.2367 29.0737 91.9667 29.007 91.6C28.947 91.2267 28.877 90.87 28.797 90.53L29.557 90.33C29.637 90.67 29.7104 91.0433 29.777 91.45C29.8504 91.8567 29.887 92.1733 29.887 92.4C29.887 92.6733 29.8237 92.9333 29.697 93.18C29.5704 93.4267 29.3837 93.6267 29.137 93.78C28.8904 93.9267 28.597 94 28.257 94H27.157V93.1ZM27.887 95.52H28.887V96.52H27.887V95.52ZM32.9477 90.92V93.74C32.9477 94.64 32.7211 95.3267 32.2677 95.8C31.8144 96.28 31.1611 96.52 30.3077 96.52H29.6777V95.62H30.3077C30.9744 95.62 31.4511 95.4767 31.7377 95.19C32.0244 94.9033 32.1677 94.42 32.1677 93.74V90.92H32.9477Z" fill="white"/>
<circle cx="81.0254" cy="74.0254" r="28.0254" fill="url(#paint0_linear_2_492)" fill-opacity="0.15"/>
<circle cx="81.0254" cy="74.0254" r="27.494" stroke="url(#paint1_linear_2_492)" stroke-opacity="0.28" stroke-width="1.06274"/>
<g filter="url(#filter0_d_2_492)">
<path d="M68.1476 69.34C68.5809 69.8133 68.9109 70.19 69.1376 70.47C69.3642 70.7433 69.5442 71.02 69.6776 71.3C69.8109 71.58 69.8776 71.8667 69.8776 72.16C69.8776 72.5133 69.7842 72.8367 69.5976 73.13C69.4109 73.4233 69.1609 73.6567 68.8476 73.83C68.5342 73.9967 68.1942 74.08 67.8276 74.08C67.4609 74.08 67.1176 73.9967 66.7976 73.83C66.4842 73.6567 66.2342 73.4233 66.0476 73.13C65.8609 72.8367 65.7676 72.5133 65.7676 72.16C65.7676 71.8533 65.8276 71.5633 65.9476 71.29C66.0742 71.01 66.2276 70.7533 66.4076 70.52C66.5942 70.2867 66.8409 70.01 67.1476 69.69L66.8676 69.38L67.5576 68.69L68.1476 69.34ZM66.7076 72.12C66.7076 72.3733 66.8076 72.5867 67.0076 72.76C67.2076 72.9267 67.4809 73.01 67.8276 73.01C68.1676 73.01 68.4376 72.9267 68.6376 72.76C68.8376 72.5867 68.9376 72.3733 68.9376 72.12C68.9376 71.92 68.8542 71.7033 68.6876 71.47C68.5276 71.2367 68.2376 70.8867 67.8176 70.42C67.4042 70.86 67.1142 71.1933 66.9476 71.42C66.7876 71.6467 66.7076 71.88 66.7076 72.12ZM74.775 71.24L74.865 71.44C75.1183 71.9933 75.3383 72.38 75.525 72.6C75.7183 72.8133 75.955 72.92 76.235 72.92H76.405L76.455 73.49L76.405 74H76.235C75.9417 74 75.6783 73.9367 75.445 73.81C75.2117 73.6833 74.995 73.4967 74.795 73.25C74.4217 73.75 73.8617 74 73.115 74H72.605C71.965 74 71.3883 73.8067 70.875 73.42L71.345 72.53C71.3583 72.5367 71.425 72.5767 71.545 72.65C71.6717 72.7233 71.8283 72.7867 72.015 72.84C72.2083 72.8933 72.405 72.92 72.605 72.92H73.115C73.3483 72.92 73.5383 72.8967 73.685 72.85C73.8383 72.8033 73.9583 72.72 74.045 72.6C74.0983 72.5267 74.125 72.4433 74.125 72.35C74.125 72.2033 74.055 71.9867 73.915 71.7L72.855 69.4L73.715 68.94L74.775 71.24ZM76.3016 72.92H76.9516C77.2449 72.92 77.4516 72.86 77.5716 72.74C77.6982 72.6133 77.7616 72.41 77.7616 72.13V70.83H78.7116V72.22C78.7116 72.4667 78.7716 72.6433 78.8916 72.75C79.0116 72.8567 79.1982 72.9133 79.4516 72.92C79.7382 72.9133 79.9449 72.8467 80.0716 72.72C80.1982 72.5933 80.2616 72.3933 80.2616 72.12V70.83H81.2016V72.22C81.2016 72.4667 81.2616 72.6433 81.3816 72.75C81.5016 72.8567 81.6849 72.9133 81.9316 72.92C82.1982 72.9133 82.3949 72.8467 82.5216 72.72C82.6549 72.5933 82.7116 72.4233 82.6916 72.21C82.6582 71.8633 82.5582 71.2767 82.3916 70.45L83.2916 70.22C83.3782 70.5667 83.4549 70.9433 83.5216 71.35C83.5949 71.75 83.6316 72.0667 83.6316 72.3C83.6316 72.5867 83.5682 72.86 83.4416 73.12C83.3149 73.38 83.1216 73.5933 82.8616 73.76C82.6082 73.92 82.2982 74 81.9316 74C81.7049 74 81.4816 73.95 81.2616 73.85C81.0416 73.7433 80.8549 73.5867 80.7016 73.38C80.3749 73.7933 79.9516 74 79.4316 74C79.2049 74 78.9749 73.9433 78.7416 73.83C78.5082 73.71 78.3249 73.56 78.1916 73.38C78.0449 73.58 77.8616 73.7333 77.6416 73.84C77.4282 73.9467 77.1916 74 76.9316 74H76.3016V72.92ZM79.3016 68.49H80.3616V69.55H79.3016V68.49ZM80.2616 67.15H81.2716V68.16H80.2616V67.15ZM81.1616 68.49H82.2216V69.55H81.1616V68.49ZM86.5548 74C86.1814 74 85.8481 73.9167 85.5548 73.75C85.2681 73.5833 85.0448 73.3633 84.8848 73.09C84.7248 72.81 84.6448 72.5033 84.6448 72.17C84.6448 72.11 84.6514 72.0133 84.6648 71.88C84.6848 71.74 84.7281 71.51 84.7948 71.19C84.8614 70.87 84.9214 70.59 84.9748 70.35L85.8548 70.58C85.6748 71.3333 85.5781 71.8133 85.5648 72.02C85.5581 72.0533 85.5548 72.0967 85.5548 72.15C85.5548 72.39 85.6414 72.58 85.8148 72.72C85.9881 72.8533 86.2348 72.92 86.5548 72.92H90.8648C91.1714 72.92 91.4014 72.84 91.5548 72.68C91.7081 72.52 91.7848 72.3233 91.7848 72.09C91.7848 71.8433 91.7381 71.5 91.6448 71.06C91.5581 70.62 91.5081 70.37 91.4948 70.31L92.3948 70.08C92.6148 71.0133 92.7248 71.6933 92.7248 72.12C92.7248 72.42 92.6514 72.7167 92.5048 73.01C92.3648 73.2967 92.1581 73.5333 91.8848 73.72C91.6114 73.9067 91.2848 74 90.9048 74H86.5548ZM88.1448 75.42H89.2548V76.52H88.1448V75.42ZM94.1866 68.27H95.1866V74H94.1866V68.27ZM92.5466 68.02C92.6466 67.62 92.8332 67.3067 93.1066 67.08C93.3799 66.8533 93.7466 66.74 94.2066 66.74H96.1966V67.58H94.2066C93.9466 67.58 93.7466 67.64 93.6066 67.76C93.4666 67.88 93.3566 68.0467 93.2766 68.26L92.5466 68.02Z" fill="#F7BB62"/>
</g>
<g opacity="0.5" filter="url(#filter1_f_2_492)">
<path d="M118.818 31.9603C116.821 30.2189 114.733 28.5856 112.562 27.0672L95.6734 51.2161C96.9837 52.1324 98.2439 53.1181 99.4489 54.169L118.818 31.9603Z" fill="url(#paint2_linear_2_492)" fill-opacity="0.2"/>
</g>
<mask id="path-8-outside-1_2_492" maskUnits="userSpaceOnUse" x="15" y="14.082" width="132" height="68" fill="black">
<rect fill="white" x="15" y="14.082" width="132" height="68"/>
<path d="M18.5439 80.3594C17.4454 80.3594 16.5516 79.4683 16.5853 78.3703C17.0905 61.9265 23.8434 46.2619 35.5116 34.5937C47.6494 22.4558 64.1119 15.6368 81.2774 15.6368C98.4429 15.6368 114.905 22.4558 127.043 34.5936C138.711 46.2618 145.464 61.9264 145.969 78.3702C146.003 79.4683 145.109 80.3594 144.011 80.3594C142.912 80.3594 142.025 79.4682 141.989 78.3702C141.486 62.9818 135.152 48.3288 124.23 37.4067C112.838 26.0149 97.3878 19.6151 81.2774 19.6151C65.167 19.6151 49.7164 26.0149 38.3247 37.4067C27.4026 48.3288 21.0693 62.9818 20.5656 78.3703C20.5296 79.4682 19.6425 80.3594 18.5439 80.3594Z"/>
</mask>
<path d="M18.5439 80.3594C17.4454 80.3594 16.5516 79.4683 16.5853 78.3703C17.0905 61.9265 23.8434 46.2619 35.5116 34.5937C47.6494 22.4558 64.1119 15.6368 81.2774 15.6368C98.4429 15.6368 114.905 22.4558 127.043 34.5936C138.711 46.2618 145.464 61.9264 145.969 78.3702C146.003 79.4683 145.109 80.3594 144.011 80.3594C142.912 80.3594 142.025 79.4682 141.989 78.3702C141.486 62.9818 135.152 48.3288 124.23 37.4067C112.838 26.0149 97.3878 19.6151 81.2774 19.6151C65.167 19.6151 49.7164 26.0149 38.3247 37.4067C27.4026 48.3288 21.0693 62.9818 20.5656 78.3703C20.5296 79.4682 19.6425 80.3594 18.5439 80.3594Z" fill="url(#paint3_linear_2_492)"/>
<path d="M18.5439 80.3594C17.4454 80.3594 16.5516 79.4683 16.5853 78.3703C17.0905 61.9265 23.8434 46.2619 35.5116 34.5937C47.6494 22.4558 64.1119 15.6368 81.2774 15.6368C98.4429 15.6368 114.905 22.4558 127.043 34.5936C138.711 46.2618 145.464 61.9264 145.969 78.3702C146.003 79.4683 145.109 80.3594 144.011 80.3594C142.912 80.3594 142.025 79.4682 141.989 78.3702C141.486 62.9818 135.152 48.3288 124.23 37.4067C112.838 26.0149 97.3878 19.6151 81.2774 19.6151C65.167 19.6151 49.7164 26.0149 38.3247 37.4067C27.4026 48.3288 21.0693 62.9818 20.5656 78.3703C20.5296 79.4682 19.6425 80.3594 18.5439 80.3594Z" stroke="url(#paint4_linear_2_492)" stroke-width="1.86588" mask="url(#path-8-outside-1_2_492)"/>
<circle cx="116.5" cy="28.5" r="5.5" fill="black" fill-opacity="0.01"/>
<circle cx="116.5" cy="28.5" r="3.10678" stroke="url(#paint5_linear_2_492)" stroke-opacity="0.5" stroke-width="4.78645"/>
<circle cx="116.499" cy="28.5011" r="3.80769" fill="url(#paint6_linear_2_492)"/>
<circle cx="116.499" cy="28.5011" r="3.60826" stroke="white" stroke-opacity="0.4" stroke-width="0.39887"/>
<defs>
<filter id="filter0_d_2_492" x="61.6196" y="62.592" width="38.725" height="18.076" filterUnits="userSpaceOnUse" color-interpolation-filters="sRGB">
<feFlood flood-opacity="0" result="BackgroundImageFix"/>
<feColorMatrix in="SourceAlpha" type="matrix" values="0 0 0 0 0 0 0 0 0 0 0 0 0 0 0 0 0 0 127 0" result="hardAlpha"/>
<feOffset/>
<feGaussianBlur stdDeviation="2.074"/>
<feComposite in2="hardAlpha" operator="out"/>
<feColorMatrix type="matrix" values="0 0 0 0 0.966346 0 0 0 0 0.786705 0 0 0 0 0.292691 0 0 0 0.7 0"/>
<feBlend mode="normal" in2="BackgroundImageFix" result="effect1_dropShadow_2_492"/>
<feBlend mode="normal" in="SourceGraphic" in2="effect1_dropShadow_2_492" result="shape"/>
</filter>
<filter id="filter1_f_2_492" x="89.6312" y="21.0251" width="35.229" height="39.186" filterUnits="userSpaceOnUse" color-interpolation-filters="sRGB">
<feFlood flood-opacity="0" result="BackgroundImageFix"/>
<feBlend mode="normal" in="SourceGraphic" in2="BackgroundImageFix" result="shape"/>
<feGaussianBlur stdDeviation="3.02105" result="effect1_foregroundBlur_2_492"/>
</filter>
<linearGradient id="paint0_linear_2_492" x1="86.4748" y1="75.3828" x2="78.201" y2="35.2652" gradientUnits="userSpaceOnUse">
<stop stop-color="white" stop-opacity="0"/>
<stop offset="1" stop-color="#0D0E11"/>
</linearGradient>
<linearGradient id="paint1_linear_2_492" x1="75.9286" y1="44.8346" x2="72.3354" y2="73.3976" gradientUnits="userSpaceOnUse">
<stop stop-color="white"/>
<stop offset="1" stop-color="white" stop-opacity="0"/>
</linearGradient>
<linearGradient id="paint2_linear_2_492" x1="79.9104" y1="13.1595" x2="75.4207" y2="28.4781" gradientUnits="userSpaceOnUse">
<stop offset="0.25" stop-color="white" stop-opacity="0.2"/>
<stop offset="1" stop-color="#FFD900" stop-opacity="0.6"/>
</linearGradient>
<linearGradient id="paint3_linear_2_492" x1="146" y1="80.3594" x2="16.5548" y2="80.3594" gradientUnits="userSpaceOnUse">
<stop stop-color="#DF933F" stop-opacity="0.2"/>
<stop offset="0.5" stop-color="white" stop-opacity="0.6"/>
<stop offset="1" stop-color="#DF933F" stop-opacity="0.2"/>
</linearGradient>
<linearGradient id="paint4_linear_2_492" x1="144.615" y1="403.972" x2="81.0581" y2="396.975" gradientUnits="userSpaceOnUse">
<stop stop-color="#D76E38"/>
<stop offset="1" stop-color="white" stop-opacity="0"/>
</linearGradient>
<linearGradient id="paint5_linear_2_492" x1="111.25" y1="23.3235" x2="120.877" y2="22.412" gradientUnits="userSpaceOnUse">
<stop stop-color="#C5722D"/>
<stop offset="0.4907" stop-color="#402815"/>
<stop offset="1" stop-color="#8D5E2D"/>
</linearGradient>
<linearGradient id="paint6_linear_2_492" x1="118.614" y1="25.9626" x2="116.499" y2="32.3087" gradientUnits="userSpaceOnUse">
<stop stop-color="#FEE6B9"/>
<stop offset="1" stop-color="#F5AC42"/>
</linearGradient>
</defs>
</svg>
