<svg width="16" height="162" viewBox="0 0 16 162" fill="none" xmlns="http://www.w3.org/2000/svg">
<path d="M4.61279 0.298096L10.9726 0.298096" stroke="#D9D9D9" stroke-opacity="0.1" strokeWidth="0.596296" strokeLinecap="round"/>
<path d="M4.61279 9.24255L10.9726 9.24255" stroke="#D9D9D9" stroke-opacity="0.2" strokeWidth="0.596296" strokeLinecap="round"/>
<path d="M4.61279 18.187L10.9726 18.187" stroke="#D9D9D9" stroke-opacity="0.3" strokeWidth="0.596296" strokeLinecap="round"/>
<path d="M4.61279 27.1315L10.9726 27.1315" stroke="#D9D9D9" stroke-opacity="0.4" strokeWidth="0.596296" strokeLinecap="round"/>
<path d="M0.372803 36.0759L15.2124 36.0759" stroke="#D9D9D9" stroke-opacity="0.5" strokeWidth="0.74537" strokeLinecap="round"/>
<path d="M4.61279 45.0203L10.9726 45.0203" stroke="#D9D9D9" stroke-opacity="0.6" strokeWidth="0.596296" strokeLinecap="round"/>
<path opacity="0.8" d="M4.61279 53.9647L10.9726 53.9647" stroke="#D9D9D9" stroke-opacity="0.7" strokeWidth="0.596296" strokeLinecap="round"/>
<path opacity="0.9" d="M4.61279 62.9092L10.9726 62.9092" stroke="#D9D9D9" stroke-opacity="0.8" strokeWidth="0.596296" strokeLinecap="round"/>
<path d="M4.61279 71.8536L10.9726 71.8536" stroke="#D9D9D9" stroke-opacity="0.9" strokeWidth="0.596296" strokeLinecap="round"/>
<path d="M0.372803 80.7981L15.2124 80.7981" stroke="#D9D9D9" strokeWidth="0.74537" strokeLinecap="round"/>
<path d="M4.61279 89.7426L10.9726 89.7426" stroke="#D9D9D9" stroke-opacity="0.9" strokeWidth="0.596296" strokeLinecap="round"/>
<path opacity="0.9" d="M4.61279 98.687L10.9726 98.687" stroke="#D9D9D9" stroke-opacity="0.8" strokeWidth="0.596296" strokeLinecap="round"/>
<path opacity="0.8" d="M4.61279 107.631L10.9726 107.631" stroke="#D9D9D9" stroke-opacity="0.7" strokeWidth="0.596296" strokeLinecap="round"/>
<path d="M4.61279 116.576L10.9726 116.576" stroke="#D9D9D9" stroke-opacity="0.6" strokeWidth="0.596296" strokeLinecap="round"/>
<path d="M0.372803 125.52L15.2124 125.52" stroke="#D9D9D9" stroke-opacity="0.5" strokeWidth="0.74537" strokeLinecap="round"/>
<path d="M4.61279 134.465L10.9726 134.465" stroke="#D9D9D9" stroke-opacity="0.4" strokeWidth="0.596296" strokeLinecap="round"/>
<path d="M4.61279 143.409L10.9726 143.409" stroke="#D9D9D9" stroke-opacity="0.3" strokeWidth="0.596296" strokeLinecap="round"/>
<path d="M4.61279 152.354L10.9726 152.354" stroke="#D9D9D9" stroke-opacity="0.2" strokeWidth="0.596296" strokeLinecap="round"/>
<path d="M4.61279 161.298L10.9726 161.298" stroke="#D9D9D9" stroke-opacity="0.1" strokeWidth="0.596296" strokeLinecap="round"/>
<path d="M6.29272 50.4555C6.29272 49.6079 5.72734 48.8851 5.05496 48.369C3.98351 47.5466 3.29272 46.2532 3.29272 44.7981C3.29272 42.3128 5.30744 40.2981 7.79272 40.2981C10.278 40.2981 12.2927 42.3128 12.2927 44.7981C12.2927 46.2532 11.6019 47.5466 10.5305 48.369C9.85811 48.8851 9.29272 49.6079 9.29272 50.4555L9.29272 79.7981C9.29272 80.6265 8.62115 81.2981 7.79272 81.2981C6.9643 81.2981 6.29272 80.6265 6.29272 79.7981L6.29272 50.4555Z" fill="url(#paint0_linear_2_601)"/>
<g filter="url(#filter0_f_2_601)">
<rect x="10.3728" y="47.2981" width="5" height="5" rx="2.5" transform="rotate(180 10.3728 47.2981)" fill="white"/>
</g>
<defs>
<filter id="filter0_f_2_601" x="4.3728" y="41.2981" width="7" height="7" filterUnits="userSpaceOnUse" color-interpolation-filters="sRGB">
<feFlood floodOpacity="0" result="BackgroundImageFix"/>
<feBlend mode="normal" in="SourceGraphic" in2="BackgroundImageFix" result="shape"/>
<feGaussianBlur stdDeviation="0.5" result="effect1_foregroundBlur_2_601"/>
</filter>
<linearGradient id="paint0_linear_2_601" x1="7.29272" y1="81.2981" x2="7.29272" y2="51.2981" gradientUnits="userSpaceOnUse">
<stop stop-color="#CA9131" stop-opacity="0.1"/>
<stop offset="1" stop-color="#CA9131"/>
</linearGradient>
</defs>
</svg>
